<svg xmlns="http://www.w3.org/2000/svg" style="display: none;">
  <symbol id="icon-quote" viewBox="0 0 30 20" stroke="none">
    <path d="M2.8 20h6l4-8V0H.8v12h6l-4 8Zm16 0h6l4-8V0h-12v12h6l-4 8Z" />
  </symbol>
  <symbol id="icon-share" viewBox="0 0 16 16" stroke="none">
    <path fill-rule="evenodd" clip-rule="evenodd" d="M2.8 5.33h1.07v6.8h8.93v-6.8h1.07v7.87H2.8V5.33Z" />
    <path d="M7.78 2.76v7.02h1.2V2.76l1.88 1.94.81-.81L8.47.62 8.41.56 5.15 3.82l-.07.07.82.81 1.88-1.94Z" />
  </symbol>
  <symbol id="icon-view" viewBox="0 0 16 16" stroke="none">
    <path d="M7.99999 9.86663c1.08002 0 1.95555-.83573 1.95555-1.86666 0-1.03093-.87553-1.86667-1.95555-1.86667-1.08002 0-1.95556.83574-1.95556 1.86667 0 1.03093.87554 1.86666 1.95556 1.86666Z" />
    <path
      d="M12.2416 4.651c-1.3359-.87441-2.76562-1.31775-4.2491-1.31775-1.33497 0-2.63633.37917-3.86802 1.12234C2.88239 5.20663 1.66475 6.57075.6665 7.99992c.80728 1.28333 1.91156 2.60288 3.06167 3.35938 1.31939.8675 2.75397 1.3073 4.26433 1.3073 1.49723 0 2.9288-.4396 4.2564-1.3064 1.1687-.7644 2.281-2.0822 3.0843-3.36028-.8061-1.26671-1.922-2.583-3.0916-3.34892Zm-4.24176 6.1489c-.58016 0-1.14729-.1642-1.62968-.4719-.48238-.3076-.85835-.74493-1.08037-1.25657-.22202-.51163-.28011-1.07462-.16692-1.61776.11318-.54315.39255-1.04206.80279-1.43365.41023-.39159.9329-.65826 1.50191-.7663.56901-.10804 1.15881-.05259 1.6948.15934.536.21192.99413.5708 1.31643 1.03126.3223.46046.4944 1.00181.4944 1.5556-.0009.74234-.3103 1.45404-.8602 1.97896-.54988.52492-1.29547.82022-2.07316.82102Z" />
  </symbol>
</svg>
