<svg xmlns="http://www.w3.org/2000/svg" style="display: none;">
  <symbol id="icon-arrow" viewBox="0 0 24 24" stroke="none">
    <path d="m12 4-1.4 1.4 5.6 5.6H4v2h12.2l-5.6 5.6L12 20l8-8-8-8Z" />
  </symbol>
  <symbol id="icon-briefcase" viewBox="0 0 24 24" fill="none">
    <path stroke-width="1.6" d="M3 9v11h18V9M3 9V7.4h5.6M3 9l3 4.7h12L21 9m0 0V7.4h-5.6m-6.8 0V4h6.8v3.4m-6.8 0h6.8M12 12v3.4" />
  </symbol>
  <symbol id="icon-compare" viewBox="0 0 24 24" stroke="none">
    <path d="M4.5 9h2.25v12H4.5zM18 9h2.25v12H18zm-6.75-6h2.25v18h-2.25z" />
  </symbol>
  <symbol id="icon-heart" viewBox="0 0 24 24" stroke="none">
    <path
      d="M12 21a68.94 68.94 0 0 0-2.14-1.8h-.01c-2.72-2.22-5.8-4.73-7.16-7.74-.44-.96-.68-2-.69-3.06A5.39 5.39 0 0 1 7.5 3 6.16 6.16 0 0 1 12 5a6 6 0 0 1 4.5-2A5.39 5.39 0 0 1 22 8.4a7.42 7.42 0 0 1-.7 3.06c-1.35 3.01-4.43 5.52-7.14 7.74h-.01c-.78.64-1.5 1.23-2.15 1.8ZM7.5 5A3.54 3.54 0 0 0 5 6c-.65.63-1 1.5-1 2.4.01.77.19 1.53.51 2.23a12.1 12.1 0 0 0 2.56 3.47c.99 1 2.13 1.97 3.12 2.78l.83.68.17.14.81.67.01-.01h.02v-.01h.01l.02-.02.04-.03h.01l.01-.02h.02l.66-.55.17-.14.84-.68a41.9 41.9 0 0 0 3.11-2.79 12.3 12.3 0 0 0 2.56-3.47c.33-.7.51-1.47.52-2.25 0-.9-.36-1.77-1-2.4a3.54 3.54 0 0 0-2.5-1 3.99 3.99 0 0 0-2.99 1.31L12 8.05l-1.51-1.74A3.99 3.99 0 0 0 7.5 5Z" />
    <path fill="var(--icon-heart-fill)" d="m12 7 1-1 1-1 1-1h3l1 1 1 1 1 1v3l-1 1-1 2-7 7-7-7-1-2-1-1V7l3-3h3l3 3Z" />
  </symbol>
  <symbol id="icon-info" viewBox="0 0 3 7" stroke="none">
    <rect width="1.4" height="1.4" x=".8" y=".3" rx=".7" />
    <path d="M1 2.7h1v4H1z" />
  </symbol>
  <symbol id="icon-offer" viewBox="0 0 24 24" fill="none">
    <path stroke-width="2" d="M8.4 8.4h7.2M8.4 12h7.2m-7.2 3.6h4.5M12 3h8.1v18H3.9V3H12Z" />
  </symbol>
  <symbol id="icon-star" viewBox="0 0 24 25" stroke="none">
    <path
      d="M11.64 4.29a.4.4 0 0 1 .72 0l2.09 4.51a.4.4 0 0 0 .31.23l4.94.59a.4.4 0 0 1 .22.69l-3.65 3.37a.4.4 0 0 0-.12.37l.97 4.88a.4.4 0 0 1-.59.43l-4.33-2.43a.4.4 0 0 0-.4 0l-4.33 2.43a.4.4 0 0 1-.6-.43l.98-4.88a.4.4 0 0 0-.12-.37l-3.65-3.37a.4.4 0 0 1 .22-.7l4.94-.58a.4.4 0 0 0 .31-.23l2.09-4.51Z" />
  </symbol>
</svg>
