<svg xmlns="http://www.w3.org/2000/svg" style="display: none;">
  <symbol id="compare" viewBox="0 0 24 24" stroke="none">
    <path d="M4.5 9h2.25v12H4.5zM18 9h2.25v12H18zm-6.75-6h2.25v18h-2.25z" />
  </symbol>
  <symbol id="heart" viewBox="0 0 24 24">
    <path stroke-width="2" d="M2 8.4A5.4 5.4 0 0 1 7.5 3 6 6 0 0 1 12 5a6 6 0 0 1 4.5-2A5.4 5.4 0 0 1 22 8.4c0 5.4-6.4 9.4-10 12.6C8.4 17.8 2 13.8 2 8.4Z" />
  </symbol>
  <symbol id="icon-briefcase" viewBox="0 0 24 24" fill="none">
    <path stroke-width="1.6" d="M3 9v11h18V9M3 9V7.4h5.6M3 9l3 4.7h12L21 9m0 0V7.4h-5.6m-6.8 0V4h6.8v3.4m-6.8 0h6.8M12 12v3.4" />
  </symbol>
  <symbol id="icon-info" viewBox="0 0 3 7" stroke="none">
    <rect width="1.4" height="1.4" x=".8" y=".3" rx=".7" />
    <path d="M1 2.7h1v4H1z" />
  </symbol>
  <symbol id="icon-offer" viewBox="0 0 24 24" fill="none">
    <path stroke-width="2" d="M8.4 8.4h7.2M8.4 12h7.2m-7.2 3.6h4.5M12 3h8.1v18H3.9V3H12Z" />
  </symbol>
  <symbol id="icon-star" viewBox="0 0 24 25" stroke="none">
    <path
      d="M11.64 4.29a.4.4 0 0 1 .72 0l2.09 4.51a.4.4 0 0 0 .31.23l4.94.59a.4.4 0 0 1 .22.69l-3.65 3.37a.4.4 0 0 0-.12.37l.97 4.88a.4.4 0 0 1-.59.43l-4.33-2.43a.4.4 0 0 0-.4 0l-4.33 2.43a.4.4 0 0 1-.6-.43l.98-4.88a.4.4 0 0 0-.12-.37l-3.65-3.37a.4.4 0 0 1 .22-.7l4.94-.58a.4.4 0 0 0 .31-.23l2.09-4.51Z" />
  </symbol>
</svg>
