<svg xmlns="http://www.w3.org/2000/svg" style="display: none;">
  <symbol id="icon-arrow" viewBox="0 0 24 24" stroke="none">
    <path d="m12 4-1.4 1.4 5.6 5.6H4v2h12.2l-5.6 5.6L12 20l8-8-8-8Z" />
  </symbol>
  <symbol id="icon-cart" viewBox="0 0 24 24" stroke="none">
    <path
      d="M15.55 13a2 2 0 0 0 1.75-1.03l3.58-6.49A1 1 0 0 0 20.01 4H5.21l-.94-2H1v2h2l3.6 7.59-1.35 2.44A2 2 0 0 0 7 17h12v-2H7l1.1-2h7.45ZM6.16 6h12.15l-2.76 5H8.53L6.16 6ZM7 18a2 2 0 1 0 .01 4A2 2 0 0 0 7 18Zm10 0a2 2 0 1 0 .01 4 2 2 0 0 0-.01-4Z" />
  </symbol>
  <symbol id="icon-close" viewBox="0 0 22 22" fill="none">
    <path stroke-width="2" d="m5.6 5.6 10.8 10.8M16.4 5.6 5.6 16.4" />
  </symbol>
  <symbol id="icon-compare" viewBox="0 0 24 24" stroke="none">
    <path d="M4.5 9h2.25v12H4.5zM18 9h2.25v12H18zm-6.75-6h2.25v18h-2.25z" />
  </symbol>
  <symbol id="icon-down" viewBox="0 0 24 24" stroke="none">
    <path d="m18.295 9.705-1.41-1.41-4.59 4.58-4.59-4.58-1.41 1.41 6 6 6-6Z" />
  </symbol>
  <symbol id="icon-facebook" viewBox="0 0 11 21" stroke="none">
    <path d="M9.83 10.564H6.987v10.42h-4.31v-10.42H.628V6.902h2.05v-2.37c0-1.695.805-4.348 4.347-4.348l3.193.013v3.555H7.9c-.38 0-.915.19-.915.998v2.155h3.221l-.376 3.66Z" />
  </symbol>
  <symbol id="icon-fire" viewBox="0 0 24 24" stroke="none">
    <path
      d="M13.5.67s.74 2.65.74 4.8c0 2.06-1.35 3.73-3.41 3.73A3.64 3.64 0 0 1 7.2 5.47l.03-.36A13.77 13.77 0 0 0 4 14a8 8 0 1 0 16 0C20 8.61 17.41 3.8 13.5.67ZM11.71 19a3.18 3.18 0 0 1-3.22-3.14c0-1.62 1.05-2.76 2.81-3.12 1.77-.36 3.6-1.21 4.62-2.58.39 1.29.59 2.65.59 4.04a4.8 4.8 0 0 1-4.8 4.8Z" />
  </symbol>
  <symbol id="icon-instagram" viewBox="0 0 20 20" stroke="none">
    <path fill-rule="evenodd" clip-rule="evenodd"
      d="M6.0284.6823h7.4666c3.0928 0 5.6 2.5072 5.6 5.6v7.4667c0 3.0928-2.5072 5.6-5.6 5.6H6.0284c-3.0928 0-5.6-2.5072-5.6-5.6V6.2823c0-3.0928 2.5072-5.6 5.6-5.6Zm0 1.8667c-2.0619 0-3.7334 1.6714-3.7334 3.7333v7.4667c0 2.0618 1.6715 3.7333 3.7334 3.7333h7.4666c2.0619 0 3.7334-1.6715 3.7334-3.7333V6.2823c0-2.0619-1.6715-3.7333-3.7334-3.7333H6.0284Zm3.7333 12.1333c-2.5773 0-4.6667-2.0893-4.6667-4.6667 0-2.5773 2.0894-4.6666 4.6667-4.6666 2.5773 0 4.6667 2.0893 4.6667 4.6666 0 2.5774-2.0894 4.6667-4.6667 4.6667Zm0-1.8667c1.5464 0 2.8-1.2536 2.8-2.8 0-1.5464-1.2536-2.8-2.8-2.8-1.5464 0-2.8 1.2536-2.8 2.8 0 1.5464 1.2536 2.8 2.8 2.8Zm4.6667-6.5333a.9334.9334 0 1 1 0-1.8667.9334.9334 0 0 1 0 1.8667Z" />
  </symbol>
  <symbol id="icon-grid" viewBox="0 0 24 24" stroke="none">
    <path d="M4 8h4V4H4v4Zm6 12h4v-4h-4v4Zm-6 0h4v-4H4v4Zm0-6h4v-4H4v4Zm6 0h4v-4h-4v4Zm6-10v4h4V4h-4Zm-6 4h4V4h-4v4Zm6 6h4v-4h-4v4Zm0 6h4v-4h-4v4Z" />
  </symbol>
  <symbol id="icon-heart" viewBox="0 0 24 24" stroke="none">
    <path
      d="M12 21a68.94 68.94 0 0 0-2.14-1.8h-.01c-2.72-2.22-5.8-4.73-7.16-7.74-.44-.96-.68-2-.69-3.06A5.39 5.39 0 0 1 7.5 3 6.16 6.16 0 0 1 12 5a6 6 0 0 1 4.5-2A5.39 5.39 0 0 1 22 8.4a7.42 7.42 0 0 1-.7 3.06c-1.35 3.01-4.43 5.52-7.14 7.74h-.01c-.78.64-1.5 1.23-2.15 1.8ZM7.5 5A3.54 3.54 0 0 0 5 6c-.65.63-1 1.5-1 2.4.01.77.19 1.53.51 2.23a12.1 12.1 0 0 0 2.56 3.47c.99 1 2.13 1.97 3.12 2.78l.83.68.17.14.81.67.01-.01h.02v-.01h.01l.02-.02.04-.03h.01l.01-.02h.02l.66-.55.17-.14.84-.68a41.9 41.9 0 0 0 3.11-2.79 12.3 12.3 0 0 0 2.56-3.47c.33-.7.51-1.47.52-2.25 0-.9-.36-1.77-1-2.4a3.54 3.54 0 0 0-2.5-1 3.99 3.99 0 0 0-2.99 1.31L12 8.05l-1.51-1.74A3.99 3.99 0 0 0 7.5 5Z" />
    <path fill="var(--icon-heart-fill)" d="m12 7 1-1 1-1 1-1h3l1 1 1 1 1 1v3l-1 1-1 2-7 7-7-7-1-2-1-1V7l3-3h3l3 3Z" />
  </symbol>
  <symbol id="icon-phone" viewBox="0 0 24 24" fill="none">
    <path stroke-width="1.6"
      d="M12.39 14.1A8.4 8.4 0 0 0 14 15c.35.12.9-.24 1.3-.5l.26-.17.02-.01c.38-.21.8-.45 1.33-.33.49.1 2.14 1.4 2.6 1.86.3.3.46.61.49.94.05 1.2-1.56 2.54-1.94 2.77-.81.6-1.9.58-3.22-.01a17.83 17.83 0 0 1-4.7-3.22c-.58-.52-1.7-1.61-2.02-1.98a20.03 20.03 0 0 1-3.66-5.22A4.25 4.25 0 0 1 4 7.33c0-.52.15-1 .44-1.4.18-.3 1.58-1.97 2.82-1.93.3.03.62.2.93.49.47.45 1.8 2.1 1.9 2.58.12.53-.12.94-.33 1.31l-.01.03-.19.29c-.26.4-.6.91-.48 1.24a9.47 9.47 0 0 0 3.31 4.15Z" />
  </symbol>
  <symbol id="icon-pin" viewBox="0 0 24 24" stroke="none">
    <path d="M12 2a7 7 0 0 0-7 7c0 5.25 7 13 7 13s7-7.75 7-13a7 7 0 0 0-7-7ZM7 9a5 5 0 0 1 10 0c0 2.88-2.88 7.19-5 9.88C9.92 16.21 7 11.85 7 9Z" />
    <path stroke-width=".3" d="M14.35 9a2.35 2.35 0 1 1-4.7 0 2.35 2.35 0 0 1 4.7 0Z" />
  </symbol>
  <symbol id="icon-return" viewBox="0 0 22 22" stroke="none">
    <path d="m11 3.8 1.27 1.27-5.02 5.03H18.2v1.8H7.25l5.02 5.03L11 18.2 3.8 11 11 3.8Z" />
  </symbol>
  <symbol id="icon-search" viewBox="0 0 22 22" stroke="none">
    <path d="M14.15 12.8h-.71l-.25-.24a5.85 5.85 0 1 0-.63.63l.24.25v.71l4.5 4.5 1.34-1.35-4.49-4.5Zm-5.4 0a4.04 4.04 0 1 1-.01-8.09 4.04 4.04 0 0 1 .01 8.09Z" />
  </symbol>
  <symbol id="icon-user" viewBox="0 0 24 24" stroke="none">
    <path
      d="M12 6a2 2 0 0 1 2 2 2 2 0 0 1-2 2 2 2 0 0 1-2-2c0-1.1.9-2 2-2Zm0 9c2.7 0 5.8 1.3 6 2v1H6v-1c.2-.7 3.3-2 6-2Zm0-11a4 4 0 1 0 0 8 4 4 0 0 0 0-8Zm0 9c-2.7 0-8 1.3-8 4v3h16v-3c0-2.7-5.3-4-8-4Z" />
  </symbol>
  <symbol id="icon-vkontakte" viewBox="0 0 22 12" stroke="none">
    <path fill-rule="evenodd" clip-rule="evenodd"
      d="M10.34 11.93h1.25s.38-.04.57-.25c.18-.19.17-.55.17-.55s-.02-1.68.76-1.92c.76-.25 1.75 1.62 2.8 2.34.79.54 1.39.42 1.39.42l2.8-.04s1.45-.09.76-1.24c-.06-.1-.4-.85-2.08-2.4-1.75-1.63-1.52-1.37.6-4.18 1.28-1.71 1.8-2.76 1.63-3.2-.15-.44-1.1-.32-1.1-.32L16.76.6s-.23-.03-.4.07a.88.88 0 0 0-.29.34s-.5 1.32-1.16 2.45c-1.4 2.38-1.96 2.5-2.19 2.36-.53-.35-.4-1.39-.4-2.12 0-2.31.35-3.27-.68-3.52-.34-.08-.6-.14-1.47-.15-1.12 0-2.07 0-2.61.27-.36.18-.63.57-.47.59.21.03.68.13.93.47.32.44.31 1.42.31 1.42s.19 2.72-.43 3.05c-.42.23-1-.24-2.25-2.4-.65-1.1-1.13-2.33-1.13-2.33S4.41.9 4.25.76c-.2-.14-.48-.2-.48-.2L.77.6S.34.6.18.79c-.15.18-.02.54-.02.54s2.34 5.48 5 8.24c2.43 2.53 5.19 2.36 5.19 2.36Z" />
  </symbol>
  <symbol id="icon-whatsapp" viewBox="0 0 24 24">
    <path fill="none" stroke-width="1.6" d="M19.5 12a7.5 7.5 0 1 0-15 0 7.46 7.46 0 0 0 1.02 3.77L4.5 19.5l3.73-1.02A7.47 7.47 0 0 0 12 19.5a7.5 7.5 0 0 0 7.5-7.5Z" />
    <path stroke="none"
      d="M12.2 13.07c.26.19.54.34.82.46.18.07.46-.12.66-.25a3.24 3.24 0 0 1 .14-.09h.01c.2-.11.4-.23.68-.17.25.05 1.1.71 1.33.95.15.15.24.31.25.48.03.6-.8 1.3-1 1.41-.4.3-.96.3-1.64 0-.71-.3-1.57-.9-2.4-1.65-.3-.26-.87-.82-1.03-1-.84-.92-1.55-1.89-1.88-2.68a2.17 2.17 0 0 1-.23-.92c0-.27.08-.5.22-.71.1-.16.81-1.01 1.45-.99.15.02.31.1.47.25.24.23.92 1.07.98 1.32.05.27-.07.48-.18.67v.01a3.07 3.07 0 0 1-.1.15c-.13.2-.3.47-.24.64a4.79 4.79 0 0 0 1.69 2.12Z" />
  </symbol>
  <symbol id="icon-yandex-zen" viewBox="0 0 17 16" stroke="none">
    <path
      d="M.643 8.086c3.542.109 5.16.2 6.457 1.457C8.357 10.84 8.442 12.457 8.557 16c-3.2 0-5.44-.01-6.647-1.05l-.113-.104C.654 13.669.643 11.28.643 8.086Zm16 0c0 3.194-.012 5.583-1.155 6.76l-.113.103C14.168 15.99 11.928 16 8.729 16c.101-3.321.188-4.95 1.234-6.21l.223-.247C11.482 8.286 13.1 8.2 16.642 8.086ZM1.645 9.12c.006 1.159.032 2.145.138 2.976.137 1.07.386 1.69.72 2.042.357.34.956.586 2.005.721.825.107 1.817.132 3.013.138-.048-1.244-.108-2.152-.247-2.88-.164-.858-.426-1.392-.882-1.867-.476-.457-1.01-.72-1.867-.885-.727-.14-1.636-.198-2.88-.245Zm13.995.001c-1.244.048-2.153.108-2.88.247-.858.164-1.392.426-1.867.882-.458.476-.72 1.01-.885 1.867-.14.727-.199 1.636-.245 2.88 1.196-.006 2.189-.031 3.014-.138 1.048-.135 1.647-.382 2.003-.721.336-.353.586-.972.722-2.042.106-.83.131-1.817.138-2.975ZM8.557 0c-.109 3.543-.2 5.16-1.457 6.457l-.247.223C5.593 7.725 3.964 7.807.643 7.914c0-3.194.011-5.583 1.154-6.76C2.974.011 5.26 0 8.557 0Zm.172 0c3.302 0 5.582.011 6.76 1.154 1.142 1.177 1.154 3.566 1.154 6.76-3.322-.107-4.95-.189-6.21-1.234l-.248-.223C8.928 5.16 8.837 3.543 8.73 0ZM7.52 1.002c-1.194.006-2.186.032-3.011.139-1.05.135-1.65.381-2.006.72-.335.353-.584.973-.72 2.043-.107.83-.133 1.816-.14 2.974 1.245-.048 2.154-.107 2.881-.246.858-.164 1.391-.427 1.867-.883.457-.476.721-1.01.885-1.866.14-.727.198-1.637.244-2.881Zm2.242 0c.046 1.244.105 2.154.245 2.88.164.857.428 1.391.885 1.867.475.457 1.009.719 1.867.883.727.139 1.636.198 2.88.246-.007-1.158-.032-2.144-.138-2.974-.136-1.07-.386-1.69-.722-2.043-.356-.339-.955-.585-2.003-.72-.825-.107-1.818-.133-3.014-.14Z" />
    <path
      d="M8.729 0c.108 3.543.2 5.16 1.457 6.457C11.482 7.714 13.1 7.8 16.642 7.914v.172c-3.543.109-5.16.2-6.458 1.457C8.928 10.84 8.843 12.457 8.73 16h-.172l-.042-1.241C8.407 12.058 8.2 10.678 7.1 9.543 5.802 8.286 4.185 8.2.643 8.086v-.172c3.542-.109 5.16-.2 6.457-1.457C8.357 5.16 8.442 3.543 8.557 0h.172Zm-.087 6.03a4.97 4.97 0 0 1-.825 1.123l-.021.022c-.352.341-.724.61-1.124.825.342.183.663.406.969.68l.155.145.021.022c.341.351.611.723.826 1.123.214-.4.484-.771.825-1.123l.021-.022A4.986 4.986 0 0 1 10.612 8a4.97 4.97 0 0 1-1.123-.824l-.021-.022a4.986 4.986 0 0 1-.826-1.124Z" />
  </symbol>
  <symbol id="icon-youtube" viewBox="0 0 17 12" stroke="none">
    <path d="M16.25 2.91A2.43 2.43 0 0 0 13.83.48H2.43A2.43 2.43 0 0 0 .02 2.91v6.51a2.43 2.43 0 0 0 2.43 2.43h11.39a2.43 2.43 0 0 0 2.42-2.43v-6.5Zm-9.74 6V2.8l4.64 3.06L6.5 8.92Z" />
  </symbol>
</svg>
