<svg xmlns="http://www.w3.org/2000/svg" style="display: none;">
  <symbol id="icon-arrow" viewBox="0 0 24 24" stroke="none">
    <path d="m12 4-1.4 1.4 5.6 5.6H4v2h12.2l-5.6 5.6L12 20l8-8-8-8Z" />
  </symbol>
  <symbol id="icon-cart" viewBox="0 0 24 24" stroke="none">
    <path
      d="M15.55 13a2 2 0 0 0 1.75-1.03l3.58-6.49A1 1 0 0 0 20.01 4H5.21l-.94-2H1v2h2l3.6 7.59-1.35 2.44A2 2 0 0 0 7 17h12v-2H7l1.1-2h7.45ZM6.16 6h12.15l-2.76 5H8.53L6.16 6ZM7 18a2 2 0 1 0 .01 4A2 2 0 0 0 7 18Zm10 0a2 2 0 1 0 .01 4 2 2 0 0 0-.01-4Z" />
  </symbol>
  <symbol id="icon-close" viewBox="0 0 22 22" fill="none">
    <path stroke-width="2" d="m5.6 5.6 10.8 10.8M16.4 5.6 5.6 16.4" />
  </symbol>
  <symbol id="icon-compare" viewBox="0 0 24 24" stroke="none">
    <path d="M4.5 9h2.25v12H4.5zM18 9h2.25v12H18zm-6.75-6h2.25v18h-2.25z" />
  </symbol>
  <symbol id="icon-down" viewBox="0 0 24 24" stroke="none">
    <path d="m18.295 9.705-1.41-1.41-4.59 4.58-4.59-4.58-1.41 1.41 6 6 6-6Z" />
  </symbol>
  <symbol id="icon-fire" viewBox="0 0 24 24" stroke="none">
    <path
      d="M13.5.67s.74 2.65.74 4.8c0 2.06-1.35 3.73-3.41 3.73A3.64 3.64 0 0 1 7.2 5.47l.03-.36A13.77 13.77 0 0 0 4 14a8 8 0 1 0 16 0C20 8.61 17.41 3.8 13.5.67ZM11.71 19a3.18 3.18 0 0 1-3.22-3.14c0-1.62 1.05-2.76 2.81-3.12 1.77-.36 3.6-1.21 4.62-2.58.39 1.29.59 2.65.59 4.04a4.8 4.8 0 0 1-4.8 4.8Z" />
  </symbol>
  <symbol id="icon-grid" viewBox="0 0 24 24" stroke="none">
    <path d="M4 8h4V4H4v4Zm6 12h4v-4h-4v4Zm-6 0h4v-4H4v4Zm0-6h4v-4H4v4Zm6 0h4v-4h-4v4Zm6-10v4h4V4h-4Zm-6 4h4V4h-4v4Zm6 6h4v-4h-4v4Zm0 6h4v-4h-4v4Z" />
  </symbol>
  <symbol id="icon-heart" viewBox="0 0 24 24" stroke="none">
    <path
      d="M12 21a68.94 68.94 0 0 0-2.14-1.8h-.01c-2.72-2.22-5.8-4.73-7.16-7.74-.44-.96-.68-2-.69-3.06A5.39 5.39 0 0 1 7.5 3 6.16 6.16 0 0 1 12 5a6 6 0 0 1 4.5-2A5.39 5.39 0 0 1 22 8.4a7.42 7.42 0 0 1-.7 3.06c-1.35 3.01-4.43 5.52-7.14 7.74h-.01c-.78.64-1.5 1.23-2.15 1.8ZM7.5 5A3.54 3.54 0 0 0 5 6c-.65.63-1 1.5-1 2.4.01.77.19 1.53.51 2.23a12.1 12.1 0 0 0 2.56 3.47c.99 1 2.13 1.97 3.12 2.78l.83.68.17.14.81.67.01-.01h.02v-.01h.01l.02-.02.04-.03h.01l.01-.02h.02l.66-.55.17-.14.84-.68a41.9 41.9 0 0 0 3.11-2.79 12.3 12.3 0 0 0 2.56-3.47c.33-.7.51-1.47.52-2.25 0-.9-.36-1.77-1-2.4a3.54 3.54 0 0 0-2.5-1 3.99 3.99 0 0 0-2.99 1.31L12 8.05l-1.51-1.74A3.99 3.99 0 0 0 7.5 5Z" />
    <path fill="var(--icon-heart-fill)" d="m12 7 1-1 1-1 1-1h3l1 1 1 1 1 1v3l-1 1-1 2-7 7-7-7-1-2-1-1V7l3-3h3l3 3Z" />
  </symbol>
  <symbol id="icon-phone" viewBox="0 0 24 24" fill="none">
    <path stroke-width="1.6"
      d="M12.39 14.1A8.4 8.4 0 0 0 14 15c.35.12.9-.24 1.3-.5l.26-.17.02-.01c.38-.21.8-.45 1.33-.33.49.1 2.14 1.4 2.6 1.86.3.3.46.61.49.94.05 1.2-1.56 2.54-1.94 2.77-.81.6-1.9.58-3.22-.01a17.83 17.83 0 0 1-4.7-3.22c-.58-.52-1.7-1.61-2.02-1.98a20.03 20.03 0 0 1-3.66-5.22A4.25 4.25 0 0 1 4 7.33c0-.52.15-1 .44-1.4.18-.3 1.58-1.97 2.82-1.93.3.03.62.2.93.49.47.45 1.8 2.1 1.9 2.58.12.53-.12.94-.33 1.31l-.01.03-.19.29c-.26.4-.6.91-.48 1.24a9.47 9.47 0 0 0 3.31 4.15Z" />
  </symbol>
  <symbol id="icon-pin" viewBox="0 0 24 24" stroke="none">
    <path d="M12 2a7 7 0 0 0-7 7c0 5.25 7 13 7 13s7-7.75 7-13a7 7 0 0 0-7-7ZM7 9a5 5 0 0 1 10 0c0 2.88-2.88 7.19-5 9.88C9.92 16.21 7 11.85 7 9Z" />
    <path stroke-width=".3" d="M14.35 9a2.35 2.35 0 1 1-4.7 0 2.35 2.35 0 0 1 4.7 0Z" />
  </symbol>
  <symbol id="icon-return" viewBox="0 0 22 22" stroke="none">
    <path d="m11 3.8 1.27 1.27-5.02 5.03H18.2v1.8H7.25l5.02 5.03L11 18.2 3.8 11 11 3.8Z" />
  </symbol>
  <symbol id="icon-search" viewBox="0 0 22 22" stroke="none">
    <path d="M14.15 12.8h-.71l-.25-.24a5.85 5.85 0 1 0-.63.63l.24.25v.71l4.5 4.5 1.34-1.35-4.49-4.5Zm-5.4 0a4.04 4.04 0 1 1-.01-8.09 4.04 4.04 0 0 1 .01 8.09Z" />
  </symbol>
  <symbol id="icon-user" viewBox="0 0 24 24" stroke="none">
    <path
      d="M12 6a2 2 0 0 1 2 2 2 2 0 0 1-2 2 2 2 0 0 1-2-2c0-1.1.9-2 2-2Zm0 9c2.7 0 5.8 1.3 6 2v1H6v-1c.2-.7 3.3-2 6-2Zm0-11a4 4 0 1 0 0 8 4 4 0 0 0 0-8Zm0 9c-2.7 0-8 1.3-8 4v3h16v-3c0-2.7-5.3-4-8-4Z" />
  </symbol>
  <symbol id="icon-whatsapp" viewBox="0 0 24 24">
    <path fill="none" stroke-width="1.6" d="M19.5 12a7.5 7.5 0 1 0-15 0 7.46 7.46 0 0 0 1.02 3.77L4.5 19.5l3.73-1.02A7.47 7.47 0 0 0 12 19.5a7.5 7.5 0 0 0 7.5-7.5Z" />
    <path stroke="none"
      d="M12.2 13.07c.26.19.54.34.82.46.18.07.46-.12.66-.25a3.24 3.24 0 0 1 .14-.09h.01c.2-.11.4-.23.68-.17.25.05 1.1.71 1.33.95.15.15.24.31.25.48.03.6-.8 1.3-1 1.41-.4.3-.96.3-1.64 0-.71-.3-1.57-.9-2.4-1.65-.3-.26-.87-.82-1.03-1-.84-.92-1.55-1.89-1.88-2.68a2.17 2.17 0 0 1-.23-.92c0-.27.08-.5.22-.71.1-.16.81-1.01 1.45-.99.15.02.31.1.47.25.24.23.92 1.07.98 1.32.05.27-.07.48-.18.67v.01a3.07 3.07 0 0 1-.1.15c-.13.2-.3.47-.24.64a4.79 4.79 0 0 0 1.69 2.12Z" />
  </symbol>
</svg>
