<svg xmlns="http://www.w3.org/2000/svg" fill="none" viewBox="0 0 39 11"><path fill="url(#a)" d="M34.21.13h-7.13c.41 2.36 2.7 4.57 5.2 4.57h5.68c.06-.2.06-.55.06-.76a3.84 3.84 0 0 0-3.8-3.81Z"/><path fill="#4FAD50" d="M27.7 5.12v5.75h3.47V7.82h3.04a3.87 3.87 0 0 0 3.6-2.7h-10.1ZM15.5.13V10.8h3.06s.76 0 1.17-.76c2.08-4.09 2.7-5.34 2.7-5.34h.42v6.1h3.47V.13h-3.05s-.77.07-1.18.76c-1.73 3.54-2.7 5.34-2.7 5.34h-.42V.13h-3.46ZM.96 10.87V.2h3.46s.97 0 1.53 1.52C7.33 5.74 7.47 6.3 7.47 6.3s.28-.97 1.52-4.58C9.55.2 10.52.2 10.52.2h3.46v10.67h-3.46V5.12h-.42l-1.94 5.75H6.64L4.7 5.12h-.42v5.75H.96Z"/><defs><linearGradient id="a" x1="27.07" x2="38" y1="2.45" y2="2.45" gradientUnits="userSpaceOnUse"><stop stop-color="#27B1E6"/><stop offset="1" stop-color="#148ACA"/></linearGradient></defs></svg>