<svg xmlns="http://www.w3.org/2000/svg" fill="none" viewBox="0 0 112 80"><g fill="#7d7d7d"><rect width="100%" height="100%" fill="#c0dd00"/><path fill-rule="evenodd" d="M1.5 1.5h109v77H1.5v-77zM112 0v80H0V0h112z" clip-rule="evenodd"/><path d="m32.77 30.24-8.95-2.17c-1.52-.36-3.9-.97-3.9-3.84 0-3.3 3.5-4.4 6.43-4.4 6.67 0 7.28 3.89 7.48 5.56h4.26v6.84c-1.56-.91-3.4-1.5-5.32-1.99zm-4.86 21.9c1.92 0 6.65-.34 10.18-2.92v1.96h7.12l.01-8.6 2.97-3.08 6.48 11.67h8.55L53.41 34.5l9.56-10.52H54.2l-8.99 10.32V14.46H38.1v3.14c-2.17-2.33-5.7-4.1-11.18-4.1-11.88 0-14.11 7.24-14.11 11.28 0 5.56 2.99 8.65 8.2 9.91l7.37 1.82c3.9.96 6.68 1.67 6.68 4.55 0 3.84-4.05 4.75-7.69 4.75-6.67 0-7.79-3.89-7.79-5.96h-7.33c0 4.55 2.33 12.28 15.67 12.28M18.4 68.17c-.73 0-1.3-.06-1.7-.18V65.8c.3.14.6.2.87.2.54 0 .93-.23 1.17-.7l.05-.1-5.13-9.48h3.06l3.3 6.85 2.49-6.85h2.94L21 65.93a3.9 3.9 0 0 1-.8 1.23 3.91 3.91 0 0 1-1 .76c-.34.17-.61.25-.83.25M33.16 68h-2.4v-3.75c-.23.14-.6.32-1.13.53a4.12 4.12 0 0 1-1.56.31c-.95 0-1.7-.25-2.26-.76-.55-.5-.83-1.3-.83-2.41v-3h2.39v2.93c0 .82.52 1.23 1.55 1.23.32 0 .67-.07 1.03-.21a7.36 7.36 0 0 0 .82-.36v-3.6h2.39v9.09zm7.72-4.43c-.26.2-.8.37-1.63.5a4.62 4.62 0 0 0-.86.22 1.25 1.25 0 0 0-.55.4c-.14.18-.21.43-.21.74 0 .38.12.65.35.83.23.18.48.27.76.27.36 0 .7-.08 1.03-.23a2 2 0 0 0 .8-.62c.2-.28.3-.6.3-.94v-1.17zm2.34 2.65c0 .5.04.84.13 1.03.1.2.22.32.4.39v.36h-2.58a5.05 5.05 0 0 1-.22-1.08 5.37 5.37 0 0 1-1.23.96c-.42.24-1 .36-1.71.36-.48 0-.94-.1-1.36-.29a2.35 2.35 0 0 1-1.02-.88c-.26-.4-.39-.9-.39-1.48 0-.57.11-1.06.34-1.47.22-.42.53-.74.92-.97a3.78 3.78 0 0 1 1.39-.46l2.15-.33c.56-.07.84-.31.84-.71 0-.45-.15-.73-.45-.86a2.8 2.8 0 0 0-1.12-.2c-.53 0-.9.12-1.1.36-.2.24-.33.54-.38.9h-2.3a3.6 3.6 0 0 1 .72-2 2.84 2.84 0 0 1 1.42-.94 7.07 7.07 0 0 1 3.55-.02 3.1 3.1 0 0 1 1.4.8c.4.39.6.93.6 1.61v4.92m9.9-1.54a4.4 4.4 0 0 1-.24 1.03 4 4 0 0 1-.66 1.16c-.31.39-.73.71-1.27.97s-1.2.4-1.98.4c-.81 0-1.5-.14-2.05-.42a3.43 3.43 0 0 1-1.3-1.08 4.32 4.32 0 0 1-.66-1.45 6.47 6.47 0 0 1-.2-1.58c0-1 .16-1.89.46-2.64.3-.76.78-1.34 1.43-1.77a5.2 5.2 0 0 1 4.2-.33c.58.21 1.09.58 1.53 1.1.43.52.68 1.21.75 2.09H50.7c-.17-.98-.7-1.47-1.59-1.47-.46 0-.84.13-1.12.4a2.15 2.15 0 0 0-.6.98 4.48 4.48 0 0 0-.18 1.25c0 .5.04.94.1 1.35.07.42.24.79.51 1.11.28.33.69.5 1.24.5.36 0 .67-.1.91-.3a1.72 1.72 0 0 0 .54-.66c.12-.25.17-.46.17-.64h2.43M56.73 68v-7.17h-2.71V58.9h7.82v1.91h-2.72V68h-2.39zm14.58 0h-2.4V64.4h-3.39V68h-2.39V58.9h2.39v3.59h3.4V58.9h2.39V68m10.31 0h-2.38v-5.47L76 68h-2.56V58.9h2.39v5.47l3.22-5.47h2.56V68m4.54 0h-2.4V58.9h2.4v3.45l3-3.45h2.99l-3.26 3.52 3.4 5.57h-2.9l-2.24-3.9-1 1.03v2.87"/></g></svg>