<svg xmlns="http://www.w3.org/2000/svg" fill="none" viewBox="0 0 193 44"><path fill="#1D1D1D" d="M2.54 22V6.16h6.69a11.34 11.34 0 0 1 1.32.09c.94.14 1.72.46 2.32.93a4.2 4.2 0 0 1 1.34 1.8c.29.73.43 1.53.43 2.42a5.8 5.8 0 0 1-.99 3.4 4.42 4.42 0 0 1-3.1 1.74l-1.32.1h-3.7V22H2.54Zm8.93 0-3.12-6.45 3.08-.59L14.86 22h-3.39Zm-5.94-8.16H9.1a6.37 6.37 0 0 0 1-.11c.41-.11.72-.3.94-.55.22-.27.37-.56.45-.87.1-.32.14-.63.14-.91 0-.29-.05-.6-.14-.9a2.1 2.1 0 0 0-.45-.88 1.79 1.79 0 0 0-.93-.56 2.6 2.6 0 0 0-.5-.08 6.38 6.38 0 0 0-.51-.03H5.53v4.89Zm12 8.16V6.16h10.34v2.8h-7.35v3.38h6.03v2.8h-6.03v4.07h7.35V22H17.53Zm13.22 0V6.16h2.69l5.23 10.52 5.24-10.52h2.68V22H43.8v-9.46L39.2 22h-1.05l-4.6-9.46V22h-2.8Zm25.98.33a7.84 7.84 0 0 1-4.1-1.03 6.93 6.93 0 0 1-2.65-2.9 9.6 9.6 0 0 1-.93-4.32c0-1.64.31-3.08.93-4.32a6.93 6.93 0 0 1 2.65-2.9 7.84 7.84 0 0 1 4.1-1.03c1.58 0 2.95.34 4.1 1.03a6.84 6.84 0 0 1 2.64 2.9 9.5 9.5 0 0 1 .94 4.32 9.5 9.5 0 0 1-.94 4.32 6.84 6.84 0 0 1-2.65 2.9 7.78 7.78 0 0 1-4.09 1.03Zm0-2.82c1 .02 1.84-.2 2.5-.65a4.03 4.03 0 0 0 1.5-1.9c.34-.82.51-1.78.51-2.88 0-1.1-.17-2.05-.5-2.86a4.04 4.04 0 0 0-1.5-1.88 4.53 4.53 0 0 0-2.5-.7c-1.01 0-1.85.2-2.52.65a4.09 4.09 0 0 0-1.5 1.9 7.7 7.7 0 0 0-.5 2.89c0 1.1.17 2.05.5 2.86.33.8.84 1.43 1.5 1.88.67.45 1.5.68 2.51.7ZM66.85 22V6.16h3.04l6.89 10.56V6.16h3.03V22h-3.03l-6.89-10.56V22h-3.04Zm19.96 0V8.95h-5V6.16H94.8v2.8h-5V22h-2.98Zm10 0V6.16h3.04l6.88 10.56V6.16h3.04V22h-3.04l-6.88-10.56V22H96.8Zm16.5 0V6.16h2.99V22h-3Zm13.33.33a7.84 7.84 0 0 1-4.1-1.03 6.93 6.93 0 0 1-2.65-2.9 9.6 9.6 0 0 1-.92-4.32c0-1.64.3-3.08.92-4.32a6.93 6.93 0 0 1 2.65-2.9 7.84 7.84 0 0 1 4.1-1.03c1.82 0 3.35.45 4.58 1.35a7.17 7.17 0 0 1 2.62 3.67l-3.02.83c-.29-.96-.78-1.7-1.48-2.23a4.3 4.3 0 0 0-2.7-.8c-1 0-1.84.22-2.51.67a4.1 4.1 0 0 0-1.51 1.89c-.34.81-.5 1.77-.5 2.87s.16 2.06.5 2.87a4.1 4.1 0 0 0 1.5 1.9c.68.44 1.52.66 2.52.66 1.1 0 2-.26 2.7-.8.7-.53 1.2-1.28 1.48-2.23l3.02.83a7.17 7.17 0 0 1-2.62 3.67 7.54 7.54 0 0 1-4.58 1.35Zm9.87-.33V6.16h3v7.3l6.02-7.3h3.65l-6.62 7.81L149.6 22h-3.78l-6.32-7.22V22h-2.99Z"/><path fill="#FFB74D" d="M151.88 22v-3h2.99v3h-3Zm6.8 0V6.16h6.7a11.32 11.32 0 0 1 1.32.09c.94.14 1.72.46 2.32.93a4.2 4.2 0 0 1 1.34 1.8c.28.73.43 1.53.43 2.42a5.8 5.8 0 0 1-1 3.4 4.42 4.42 0 0 1-3.1 1.74l-1.31.1h-3.7V22h-3Zm8.94 0-3.12-6.45 3.08-.59L171 22h-3.39Zm-5.94-8.16h3.56a6.36 6.36 0 0 0 1.02-.11c.4-.11.71-.3.93-.55.22-.27.37-.56.45-.87a3.36 3.36 0 0 0 0-1.81 2.1 2.1 0 0 0-.45-.88 1.79 1.79 0 0 0-.93-.56 2.59 2.59 0 0 0-.51-.08 6.37 6.37 0 0 0-.5-.03h-3.57v4.89Zm18.44 8.49c-1.27 0-2.4-.26-3.36-.77a5.66 5.66 0 0 1-2.27-2.19 6.5 6.5 0 0 1-.81-3.31V6.18l3.03-.02v9.88c0 .52.1 1 .27 1.42a3.34 3.34 0 0 0 1.81 1.81 3.66 3.66 0 0 0 2.68 0 3.23 3.23 0 0 0 1.8-1.82c.17-.43.26-.9.26-1.41V6.16h3.04v9.9a6.5 6.5 0 0 1-.81 3.31 5.66 5.66 0 0 1-2.27 2.19c-.97.51-2.1.77-3.37.77Z"/><path fill="#1D1D1D" d="M2.71 41v-6.12h.53l2.5 3.52 2.49-3.52h.53V41h-.59v-5.1l-2.46 3.38-2.44-3.38V41h-.56Zm10.86.14c-.82 0-1.53-.3-2.12-.9a3.18 3.18 0 0 1-.88-2.31c0-.9.28-1.65.83-2.27a2.7 2.7 0 0 1 2.08-.92c.84 0 1.51.3 2.03.9a3.4 3.4 0 0 1 .76 2.54H11.2c.05.74.31 1.32.77 1.76.46.44 1 .65 1.63.65.8 0 1.5-.32 2.1-.96l.4.36a3.34 3.34 0 0 1-2.53 1.15Zm-2.37-3.49h4.45a2.91 2.91 0 0 0-.64-1.69c-.37-.46-.9-.68-1.56-.68-.6 0-1.1.22-1.53.68a2.7 2.7 0 0 0-.72 1.7ZM18 41v-6.12h4.05v.53h-3.46V41H18Zm7.38.14c-.67 0-1.23-.16-1.69-.5a1.71 1.71 0 0 1-.67-1.44c0-.62.24-1.11.73-1.46a3.25 3.25 0 0 1 1.94-.53c.7 0 1.37.09 2.03.26v-.26c0-.61-.17-1.07-.53-1.4a2.13 2.13 0 0 0-1.48-.47c-.64 0-1.28.16-1.92.49l-.22-.52a5.17 5.17 0 0 1 2.17-.53c.84 0 1.49.23 1.93.68.42.41.63.99.63 1.72V41h-.58v-1.02a2.7 2.7 0 0 1-2.34 1.16Zm.04-.55c.64 0 1.18-.17 1.63-.53.46-.36.68-.8.68-1.35V38a8.38 8.38 0 0 0-2.07-.27c-.64 0-1.14.13-1.49.4-.34.25-.52.6-.52 1.05 0 .44.16.78.48 1.03.32.25.75.37 1.29.37Zm7.7.55c-.89 0-1.63-.3-2.23-.93-.6-.63-.9-1.38-.9-2.27 0-.88.3-1.63.9-2.26a3.14 3.14 0 0 1 4.66.2l-.4.42c-.67-.68-1.35-1.01-2.05-1.01-.68 0-1.26.26-1.75.78a2.66 2.66 0 0 0-.72 1.87c0 .74.24 1.36.73 1.88.49.52 1.08.77 1.79.77.73 0 1.4-.35 2.03-1.04l.43.38a3.24 3.24 0 0 1-2.5 1.21ZM38.8 41v-5.6h-2.29v-.52h5.17v.53H39.4V41h-.59Zm9.32-.8c-.6.63-1.35.94-2.25.94-.9 0-1.64-.3-2.24-.93a3.2 3.2 0 0 1-.89-2.27 3.16 3.16 0 0 1 3.16-3.2c.9 0 1.64.31 2.23.94.6.63.9 1.38.9 2.26 0 .87-.3 1.62-.91 2.26Zm-2.22.4c.68 0 1.26-.27 1.75-.79.5-.52.74-1.14.74-1.87 0-.74-.24-1.36-.74-1.87a2.35 2.35 0 0 0-1.78-.78c-.68 0-1.27.26-1.76.78a2.61 2.61 0 0 0-.73 1.87c0 .74.24 1.36.73 1.88.49.52 1.08.77 1.79.77Zm4.94 2.32v-8.04h.59v1.37c.66-1.01 1.5-1.51 2.52-1.51.78 0 1.47.3 2.07.88.6.59.9 1.36.9 2.32 0 .95-.3 1.72-.9 2.32-.6.59-1.29.88-2.07.88-1.04 0-1.88-.48-2.52-1.46v3.24h-.6Zm3.05-2.34c.68 0 1.26-.24 1.71-.7.46-.49.69-1.13.69-1.94 0-.78-.24-1.42-.71-1.9a2.25 2.25 0 0 0-1.7-.74 2.57 2.57 0 0 0-2.5 2.65 2.55 2.55 0 0 0 2.5 2.63Zm8.47.42v-6.12h.59v2.72H67v-2.72h.6V41H67v-2.87h-4.06V41h-.6Zm9.33.14c-.67 0-1.23-.16-1.69-.5a1.71 1.71 0 0 1-.67-1.44c0-.62.24-1.11.73-1.46a3.25 3.25 0 0 1 1.95-.53c.68 0 1.36.09 2.02.26v-.26c0-.61-.17-1.07-.52-1.4a2.13 2.13 0 0 0-1.5-.47c-.63 0-1.27.16-1.91.49l-.22-.52a5.17 5.17 0 0 1 2.17-.53c.84 0 1.49.23 1.94.68.41.41.62.99.62 1.72V41h-.58v-1.02a2.7 2.7 0 0 1-2.34 1.16Zm.04-.55c.64 0 1.18-.17 1.63-.53.46-.36.69-.8.69-1.35V38a8.38 8.38 0 0 0-2.08-.27c-.64 0-1.14.13-1.49.4-.34.25-.51.6-.51 1.05 0 .44.16.78.48 1.03.32.25.74.37 1.28.37Zm5 .41v-6.12h5.08V41h-.58v-5.6H77.3V41h-.58ZM89 40.2c-.6.63-1.35.94-2.25.94-.9 0-1.64-.3-2.24-.93a3.2 3.2 0 0 1-.89-2.27 3.16 3.16 0 0 1 3.16-3.2c.9 0 1.64.31 2.23.94.6.63.9 1.38.9 2.26 0 .87-.3 1.62-.91 2.26Zm-2.22.4c.68 0 1.26-.27 1.75-.79.5-.52.74-1.14.74-1.87 0-.74-.25-1.36-.74-1.87a2.35 2.35 0 0 0-1.78-.78c-.69 0-1.27.26-1.76.78a2.61 2.61 0 0 0-.73 1.87c0 .74.24 1.36.73 1.88.49.52 1.08.77 1.79.77Zm4.54.5c-.22 0-.45-.04-.67-.1l.1-.54c.2.06.36.08.47.08.16 0 .3-.01.39-.04.1-.04.21-.12.33-.23.12-.11.22-.29.3-.53a11.63 11.63 0 0 0 .36-2.41c.02-.6.04-1.31.04-2.13v-.32h4.16V41h-.58v-5.6H93.2v.18c0 .99-.03 1.83-.1 2.52-.06.68-.14 1.22-.23 1.62-.1.38-.23.68-.41.9-.18.2-.35.34-.52.4-.16.05-.36.08-.62.08Zm7.72-.1v-6.12h.59v2.35h1.82c.68 0 1.24.15 1.68.46.44.3.66.74.66 1.34 0 .6-.2 1.07-.61 1.43-.4.36-.95.54-1.62.54h-2.52Zm.59-.53h1.83c.52 0 .94-.12 1.24-.37.3-.25.46-.6.46-1.04 0-.41-.16-.73-.47-.95a2.09 2.09 0 0 0-1.27-.35h-1.8v2.71Zm5.76.53v-6.12h.59v2.72h4.07v-2.72h.58V41h-.58v-2.87h-4.07V41h-.59Zm7.48 0v-6.12h.59v2.35h1.82c.68 0 1.24.15 1.68.46.44.3.66.74.66 1.34 0 .6-.2 1.07-.61 1.43-.41.36-.95.54-1.62.54h-2.52Zm.59-.53h1.83c.52 0 .93-.12 1.24-.37.3-.25.45-.6.45-1.04 0-.41-.15-.73-.46-.95a2.09 2.09 0 0 0-1.28-.35h-1.78v2.71Zm5.38.53v-6.12h.6V41h-.6Zm2.25 0 2.51-3.12-2.41-3h.73l2.06 2.6 2.07-2.6h.7l-2.4 2.99 2.5 3.13h-.73l-2.16-2.72-2.16 2.72h-.7Zm11.02 0v-6.12h5.09V41h-.59v-5.6h-3.91V41h-.59Zm12.28-.8c-.6.63-1.35.94-2.24.94-.9 0-1.65-.3-2.25-.93a3.2 3.2 0 0 1-.89-2.27 3.16 3.16 0 0 1 3.16-3.2c.9 0 1.64.31 2.23.94.6.63.9 1.38.9 2.26 0 .87-.3 1.62-.91 2.26Zm-2.22.4c.68 0 1.26-.27 1.75-.79.5-.52.75-1.14.75-1.87 0-.74-.25-1.36-.75-1.87a2.35 2.35 0 0 0-1.77-.78c-.7 0-1.28.26-1.77.78a2.61 2.61 0 0 0-.73 1.87c0 .74.24 1.36.73 1.88.49.52 1.09.77 1.79.77Zm4.94.4v-6.12h.59v3.92l3.79-3.92h.78l-2.68 2.71 2.76 3.41h-.74l-2.42-2.99-1.5 1.5V41h-.58Zm6.67 1.92v-8.04h.59v1.37c.66-1.01 1.5-1.51 2.52-1.51.78 0 1.47.3 2.07.88.6.59.9 1.36.9 2.32 0 .95-.3 1.72-.9 2.32-.6.59-1.29.88-2.07.88-1.04 0-1.88-.48-2.52-1.46v3.24h-.6Zm3.05-2.34c.68 0 1.26-.24 1.71-.7.46-.49.69-1.13.69-1.94 0-.78-.24-1.42-.71-1.9a2.25 2.25 0 0 0-1.7-.74 2.57 2.57 0 0 0-2.5 2.65 2.55 2.55 0 0 0 2.5 2.63Zm4.87.42v-6.12h.59v2.35h1.82c.68 0 1.24.15 1.68.46.44.3.66.74.66 1.34 0 .6-.2 1.07-.61 1.43-.4.36-.95.54-1.62.54h-2.52Zm.59-.53h1.83c.52 0 .94-.12 1.24-.37.3-.25.46-.6.46-1.04 0-.41-.16-.73-.47-.95a2.09 2.09 0 0 0-1.27-.35h-1.8v2.71Zm5.39.53v-6.12h.58V41h-.58Zm4.36 0v-5.6h-2.3v-.52h5.18v.53h-2.3V41h-.58Zm4.35 0v-6.12h.6v5.34l4.15-5.34h.58V41h-.58v-5.34L176.99 41h-.59Zm7.56 0v-6.12h.6v5.34l4.14-5.34h.6V41h-.6v-5.34L184.55 41h-.59Zm3.74-7.5c-.3.26-.66.38-1.07.38-.42 0-.77-.12-1.07-.38a1.7 1.7 0 0 1-.55-1l.49-.1c.15.58.53.87 1.13.87.6 0 .97-.29 1.13-.87l.49.1c-.07.4-.26.74-.55 1Z"/></svg>